<svg xmlns="http://www.w3.org/2000/svg" viewBox="0 0 64 64" shape-rendering="crispEdges" role="img" aria-label="Pixel letter">
  <rect width="64" height="64" rx="12" fill="#fff7fb"/>
  <rect x="6" y="8" width="52" height="48" fill="#5f3146"/>
  <rect x="10" y="12" width="44" height="40" fill="#fff1dc"/>
  <rect x="14" y="16" width="36" height="4" fill="#f9a8d4"/>
  <rect x="18" y="20" width="28" height="4" fill="#67e8f9"/>
  <rect x="22" y="24" width="20" height="4" fill="#fde68a"/>
  <path fill="#fff7fb" d="M10 20h4v4h4v4h4v4h4v4h4v4h4v-4h4v-4h4v-4h4v-4h4v28H10z"/>
  <path fill="#ffd7ef" d="M10 20h4v4h4v4h4v4h4v4h4v4h4v-4h4v-4h4v-4h4v-4h4v4h-4v4h-4v4h-4v4h-4v4h-8v-4h-4v-4h-4v-4h-4v-4h-4z"/>
  <rect x="16" y="42" width="32" height="4" fill="#f9a8d4"/>
  <rect x="22" y="36" width="20" height="4" fill="#ec4899"/>
  <rect x="8" y="6" width="8" height="4" fill="#67e8f9"/>
  <rect x="48" y="6" width="8" height="4" fill="#fde68a"/>
  <rect x="8" y="54" width="8" height="4" fill="#c4b5fd"/>
  <rect x="48" y="54" width="8" height="4" fill="#67e8f9"/>
</svg>
